<svg height="16" viewBox="0 0 16 16" width="16" xmlns="http://www.w3.org/2000/svg"><g fill="#e0e0e0"><path d="m4 4.3355761a3.4999999 3.4999999 0 0 0 -3.4999999 3.5 3.4999999 3.4999999 0 0 0 3.4999999 3.4999999 3.4999999 3.4999999 0 0 0 3.5000001-3.4999999 3.4999999 3.4999999 0 0 0 -3.5000001-3.5zm0 1.1666666a2.3333333 2.3333333 0 0 1 2.3333335 2.3333334 2.3333333 2.3333333 0 0 1 -2.3333335 2.3333339 2.3333333 2.3333333 0 0 1 -2.3333333-2.3333339 2.3333333 2.3333333 0 0 1 2.3333333-2.3333334z" stroke-width=".583333"/><path d="m12 4.3355761a3.4999999 3.4999999 0 0 0 -3.4999999 3.5 3.4999999 3.4999999 0 0 0 3.4999999 3.4999999 3.4999999 3.4999999 0 0 0 3.5-3.4999999 3.4999999 3.4999999 0 0 0 -3.5-3.5zm0 1.1666666a2.3333333 2.3333333 0 0 1 2.333334 2.3333334 2.3333333 2.3333333 0 0 1 -2.333334 2.3333339 2.3333333 2.3333333 0 0 1 -2.3333333-2.3333339 2.3333333 2.3333333 0 0 1 2.3333333-2.3333334z" stroke-width=".583333"/><rect height="2" ry="1" width="10" x="3" y="7"/></g></svg>