<svg height="16" viewBox="0 0 16 16" width="16" xmlns="http://www.w3.org/2000/svg" xmlns:xlink="http://www.w3.org/1999/xlink"><linearGradient id="a" gradientUnits="userSpaceOnUse" x1="8" x2="8" y1="1" y2="15"><stop offset="0" stop-color="#ff7a7a"/><stop offset=".5" stop-color="#e1dc7a"/><stop offset="1" stop-color="#66ff9e"/></linearGradient><g transform="translate(0 -1036.4)"><path d="m11.971 1.002a1.0001 1.0001 0 0 0 -.24609.037109l-7 2a1.0001 1.0001 0 0 0 -.72461.96094v5.5508a2.5 2.5 0 0 0 -.5-.050781 2.5 2.5 0 0 0 -2.5 2.5 2.5 2.5 0 0 0 2.5 2.5 2.5 2.5 0 0 0 2.4961-2.4121 1.0001 1.0001 0 0 0 .0039062-.087891v-7.2441l5-1.4277v3.1719l2-1v-3.5a1.0001 1.0001 0 0 0 -1.0293-.99805z" fill="url(#a)" transform="translate(0 1036.4)"/><path d="m8 7v8h2 .625.875 1.5 1.125.875v-8h-.875-1.125-1.5-.875-.625z" fill="#e0e0e0" transform="translate(0 1036.4)"/><g fill="#5a5a5a"><path d="m9 1043.4h2v5h-2z"/><path d="m12 1043.4h2v5h-2z"/></g></g><text x="6" y="12.308663"><tspan x="6" y="41.503235"/></text></svg>