<svg height="91.751427" viewBox="0 0 87.158765 24.275899" width="329.41898" xmlns="http://www.w3.org/2000/svg" xmlns:xlink="http://www.w3.org/1999/xlink"><linearGradient id="a" gradientUnits="userSpaceOnUse" x1="117.44284" x2="234.06184" y1="40.722531" y2="40.722531"><stop offset="0" stop-color="#63bfdd"/><stop offset="1" stop-color="#38add4"/></linearGradient><circle cx="12.13795" cy="12.137949" r="9.714746" style="fill:#303d5a;stroke:#36acd4;stroke-width:1.453164;stroke-linecap:round;stroke-linejoin:round;stroke-dasharray:1.453164 1.453164;stroke-dashoffset:5.699125"/><g stroke-width=".264583" transform="matrix(.81764389 0 0 .7813164 -3.316665 -205.201719)"><g stroke="#36acd4" stroke-linejoin="round"><path d="m24.579913 284.07501q-1.12911.51828-2.471085.90699-1.33272.37945-2.582145.37945-1.61037 0-2.952345-.44423-1.341975-.44425-2.285985-1.33273-.953265-.89774-1.471545-2.23971-.518281-1.35123-.518281-3.15595 0-3.30404 1.92504-5.21056 1.934295-1.9158 5.303116-1.9158 1.175385 0 2.397045.28691 1.230915.27765 2.64693.95327v2.17493h-.16659q-.286904-.22213-.83295-.58307-.546045-.36094-1.07358-.60157-.638595-.28691-1.453035-.47201-.805185-.19435-1.83249-.19435-2.31375 0-3.664981 1.49004-1.341974 1.48081-1.341974 4.01668 0 2.67469 1.40676 4.16475 1.40676 1.4808 3.83157 1.4808.88848 0 1.767705-.17584.88848-.17586 1.55484-.4535v-3.37808h-3.692745v-1.61036h5.506725z" fill="#fdfdfd" stroke-width="1.135077"/><g fill="#fff" stroke-linecap="round"><ellipse cx="15.685247" cy="275.65598" rx="1.608197" ry="1.682946" stroke-width=".822573" transform="matrix(.99991254 -.01322524 .01207634 .99992708 0 0)"/><ellipse cx="23.420879" cy="276.17838" rx="1.012104" ry="1.059162" stroke-width=".517683"/></g></g><g fill="url(#a)" stroke-width="0" transform="matrix(.51811788 0 0 .5422079 -21.406507 255.97547)"><path d="m136.69084 44.034531h-6.528v-4.8h11.904v15.168q-1.344.624-4.8 1.248-3.456.576-6.288.576-7.632 0-10.608-3.552-2.928-3.552-2.928-11.952 0-8.016 3.456-11.76 3.504-3.744 11.04-3.744 2.832 0 5.04.144 2.256.096 3.456.336v5.04q-1.728-.144-3.984-.24-2.256-.096-4.512-.096-4.944 0-6.768 2.256-1.776 2.256-1.776 8.064 0 2.784.288 4.608.336 1.824.96 2.976.816 1.44 2.304 2.064 1.536.624 4.512.624 1.008 0 2.352-.144 1.344-.144 2.88-.384z"/><path d="m168.26959 43.890531q0 6.72-2.592 9.552-2.544 2.784-8.736 2.784-6.288 0-8.832-2.736-2.544-2.784-2.544-9.6 0-6.672 2.592-9.456 2.592-2.832 8.784-2.832 6.24 0 8.784 2.784 2.544 2.736 2.544 9.504zm-17.136-.048q0 4.416 1.104 5.808 1.104 1.392 4.704 1.392 3.504 0 4.608-1.392 1.152-1.44 1.152-5.808 0-4.464-1.104-5.856-1.056-1.392-4.656-1.392-3.552 0-4.704 1.44-1.104 1.44-1.104 5.808z"/><path d="m194.23834 43.890531q0 6.72-2.592 9.552-2.544 2.784-8.736 2.784-6.288 0-8.832-2.736-2.544-2.784-2.544-9.6 0-6.672 2.592-9.456 2.592-2.832 8.784-2.832 6.24 0 8.784 2.784 2.544 2.736 2.544 9.504zm-17.136-.048q0 4.416 1.104 5.808 1.104 1.392 4.704 1.392 3.504 0 4.608-1.392 1.152-1.44 1.152-5.808 0-4.464-1.104-5.856-1.056-1.392-4.656-1.392-3.552 0-4.704 1.44-1.104 1.44-1.104 5.808z"/><path d="m207.39109 36.402531q-2.544 0-3.504.528-.912.48-.912 2.16 0 .816.384 1.248.384.384 1.296.528l5.904.864q2.832.384 3.936 1.776 1.152 1.392 1.152 4.416 0 4.368-2.016 6.336-2.016 1.968-6.864 1.968-2.784 0-5.088-.24-2.304-.24-3.888-.72v-4.944q1.488.384 3.648.672 2.16.24 4.368.24 2.496 0 3.36-.624.912-.624.912-2.352 0-.864-.432-1.296-.432-.48-1.44-.624l-6-.864q-2.448-.336-3.6-1.824-1.152-1.536-1.152-4.416 0-3.888 2.352-5.76 2.4-1.872 7.248-1.872 1.968 0 3.6.096 1.632.096 3.36.384v4.752q-1.248-.192-3.024-.288-1.728-.144-3.6-.144z"/><path d="m234.06184 50.610531v4.752q-.816.336-2.304.576-1.44.288-2.64.288-4.56 0-6.528-1.968-1.968-2.016-1.968-6.672v-10.848h-3.168v-4.656h3.312l.768-5.664h4.656v5.664h7.584v4.656h-7.584v10.656q0 2.112.912 2.88.912.768 3.264.768.816 0 1.92-.096 1.104-.144 1.776-.336z"/></g></g><g fill="#fff" stroke="#36acd4" stroke-linecap="round" stroke-linejoin="round" stroke-width=".529167"><circle cx="7.241815" cy="4.963157" r="0"/><circle cx="17.003052" cy="5.000967" r="0"/></g></svg>