<svg height="16" viewBox="0 0 16 16" width="16" xmlns="http://www.w3.org/2000/svg"><g fill="#a5b7f3" transform="translate(0 -1036.4)"><path d="m8 1c-2.7527 0-5 2.2418344-5 4.9902344v4.0175776c0 2.706942 2.1811843 4.920046 4.8769531 4.986329a.56255625.56255625 0 0 1 -.0019531-.056641v-4.5a.56255625.56255625 0 0 1 .5625-.5625h1.4375v-1.4375a.56255625.56255625 0 0 1 .5625-.5625h2.5625v-1.8847656c0-2.7484-2.2473-4.9902344-5-4.9902344z" transform="translate(0 1036.4)"/><path d="m11 1045.4v2h2.499999v2.5h2.000001v-1.125-2.25-1.125zm2.499999 4.5h-2.499999v-2.5h-2.000001v4.5h4.5z"/></g></svg>