<svg height="16" viewBox="0 0 16 16" width="16" xmlns="http://www.w3.org/2000/svg"><g fill="#a5b7f3"><path d="m2 1c-.5522619.0000552-.9999448.4477381-1 1v12c.0000552.552262.4477381.999945 1 1h5.9375c-.3106473-.000031-.5624689-.251853-.5625-.5625v-1.4375h-4.375v-10h8.585938l-4.2929692 4.2929688c-.3903683.3905299-.3903683 1.0235325 0 1.4140624l.6679687.6679688h1.4140625v-1.4375c.0000311-.3106473.2518527-.5624689.5625-.5625h.101562l4.667969-4.6679688c.629556-.6299945.183606-1.7066816-.707031-1.7070312z" fill-opacity=".98824"/><path d="m10.500001 8.5v2.000001h2.499999v2.499999h2.000001v-1.124999-2.249998-1.125003zm2.499999 4.5h-2.499999v-2.499999h-2v4.5h4.499999z"/></g></svg>