<svg height="16" viewBox="0 0 16 16" width="16" xmlns="http://www.w3.org/2000/svg"><path d="m1.3370874.22660196c-.61330412 0-1.11048544.49718132-1.11048544 1.11048544v13.3258256c0 .613304.49718132 1.110485 1.11048544 1.110485h13.3258256c.613304 0 1.110485-.497181 1.110485-1.110485v-13.3258256c0-.61330412-.497181-1.11048544-1.110485-1.11048544zm3.3314563.77647224a1.9988738 1.9988738 0 0 1 1.9997413 1.9997413 1.9988738 1.9988738 0 0 1 -1.9997413 1.9997413 1.9988738 1.9988738 0 0 1 -1.9997413-1.9997413 1.9988738 1.9988738 0 0 1 1.9997413-1.9997413zm6.6629123 0a1.9988738 1.9988738 0 0 1 1.999741 1.9997413 1.9988738 1.9988738 0 0 1 -1.999741 1.9997413 1.9988738 1.9988738 0 0 1 -1.999741-1.9997413 1.9988738 1.9988738 0 0 1 1.999741-1.9997413zm-6.6629123 4.9971845a1.9988738 1.9988738 0 0 1 1.9997413 1.9997413 1.9988738 1.9988738 0 0 1 -1.9997413 1.9997413 1.9988738 1.9988738 0 0 1 -1.9997413-1.9997413 1.9988738 1.9988738 0 0 1 1.9997413-1.9997413zm6.6629123 0a1.9988738 1.9988738 0 0 1 1.999741 1.9997413 1.9988738 1.9988738 0 0 1 -1.999741 1.9997413 1.9988738 1.9988738 0 0 1 -1.999741-1.9997413 1.9988738 1.9988738 0 0 1 1.999741-1.9997413zm-6.6629123 4.9971843a1.9988738 1.9988738 0 0 1 1.9997413 1.999741 1.9988738 1.9988738 0 0 1 -1.9997413 1.999742 1.9988738 1.9988738 0 0 1 -1.9997413-1.999742 1.9988738 1.9988738 0 0 1 1.9997413-1.999741zm6.6629123 0a1.9988738 1.9988738 0 0 1 1.999741 1.999741 1.9988738 1.9988738 0 0 1 -1.999741 1.999742 1.9988738 1.9988738 0 0 1 -1.999741-1.999742 1.9988738 1.9988738 0 0 1 1.999741-1.999741z" fill="#e0e0e0" fill-opacity=".99608" stroke-width="1.110485"/><circle fill="#f00" fill-rule="evenodd"/></svg>