<svg height="16" viewBox="0 0 16 16" width="16" xmlns="http://www.w3.org/2000/svg"><path d="m7 1-.5644531 2.2578125a5 5 0 0 0 -.6894531.2792969l-1.9882813-1.1933594-1.4140625 1.4140625 1.1953125 1.9941406a5 5 0 0 0 -.2851563.6855469l-2.2539062.5625v2l1.2285156.3066406 3.2734375-1.3535156a2.5 2.5 0 0 1 2.4980469-2.453125 2.5 2.5 0 0 1 1.7304688.7011719l3.2734372-1.3554688.652344-1.0878906-1.414062-1.4140625-1.994141 1.1953125a5 5 0 0 0 -.685547-.2851563l-.5625-2.2539062zm6.771484 5.6933594-3.273437 1.3554687a2.5 2.5 0 0 1 -2.498047 2.4511719 2.5 2.5 0 0 1 -1.7304688-.6992188l-3.2753906 1.3554688-.6503906 1.085938 1.4140625 1.414062 1.9941406-1.195312a5 5 0 0 0 .6855469.285156l.5625 2.253906h2l.5644531-2.257812a5 5 0 0 0 .6874999-.279297l1.990235 1.193359 1.414062-1.414062-1.195312-1.994141a5 5 0 0 0 .285156-.685547l2.253906-.5625v-2z" fill="#e0e0e0"/></svg>