<svg height="12" viewBox="0 0 16 12" width="16" xmlns="http://www.w3.org/2000/svg"><text x="3.525575" y="7"><tspan x="3.525575" y="50.791855"/></text><text x="1" y="11"><tspan x="1" y="54.791855"/></text><text x="1" y="11"><tspan x="1" y="54.791855"/></text><g fill="#e0e0e0"><path d="m3.3363379 1.9924882v8.8666668h-1.5466666v-8.8666668z"/><path d="m7.2511294 5.4724882q-.7066667 0-.9733333.1466666-.2533334.1333334-.2533334.6 0 .2266667.1066667.3466667.1066667.1066666.36.1466666l1.64.24q.7866666.1066667 1.0933333.4933333.32.3866667.32 1.2266667 0 1.2133333-.56 1.7599999-.56.546667-1.9066666.546667-.7733334 0-1.4133333-.06667-.64-.06667-1.08-.2v-1.3733303q.4133333.1066667 1.0133333.1866667.6.066667 1.2133333.066667.6933333 0 .9333333-.1733334.2533333-.1733333.2533333-.6533333 0-.24-.12-.36-.12-.1333333-.4-.1733333l-1.6666666-.24q-.68-.093333-1-.5066667-.32-.4266666-.32-1.2266666 0-1.08.6533334-1.6.6666666-.5199999 2.0133333-.5199999.5466666 0 .9999999.026667.4533334.026667.9333333.1066667v1.32q-.3466666-.053333-.8399999-.08-.48-.04-1-.04z"/><path d="m14.659671 9.4191547v1.3200003q-.226666.09333-.64.16-.4.08-.733333.08-1.266667 0-1.813333-.546667-.546667-.5599999-.546667-1.8533332v-3.0133333h-.88v-1.2933333h.92l.213333-1.5733333h1.293334v1.5733333h2.106666v1.2933333h-2.106666v2.9599999q0 .5866667.253333.8.253333.2133333.906667.2133333.226666 0 .533333-.026667.306667-.04.493333-.093333z"/></g></svg>