<svg height="16" viewBox="0 0 4.2333332 4.2333335" width="16" xmlns="http://www.w3.org/2000/svg"><g fill="#e0e0e0"><g stroke-width=".264583"><path d="m.52916663.26458333a.26458333.26458333 0 0 0 -.2645833.2645833v3.17500007a.26458333.26458333 0 0 0 .2645833.264583h3.17499997a.26458333.26458333 0 0 0 .2645834-.264583v-3.17500007a.26458333.26458333 0 0 0 -.2645834-.2645833zm2.91041667.5291667v2.11666667h-2.64583337v-2.11666667z"/><path d="m1.4552083.92604163h.2645833v.26458337h-.2645833z"/><path d="m1.984375.92604163h.2645833v.26458337h-.2645833z"/><path d="m1.7197916 1.190625h.2645834v.2645833h-.2645834z"/><path d="m2.2489583 1.190625h.2645833v.2645833h-.2645833z"/><path d="m2.5135416 1.4552083h.2645834v.2645834h-.2645834z"/></g><path d="m3.5 3.5v1 1 1 1 1 1 1h1 1 1 1 1 1 1v-1h-1v-1h-1v-1h-1v-1h-1v-1h-1v-1h-1v-1zm7 6h1v-1h-1zm1-1h1v-1h-1zm0-1v-1h-1v1zm0 2v1h1v-1z" stroke-width=".999999" transform="scale(.26458333)"/><g stroke-width=".264583"><path d="m2.5135416 1.9843747h.2645834v.264584h-.2645834z"/><path d="m2.2489583 1.7197917h.2645833v.264583h-.2645833z"/><path d="m1.984375 1.4552083h.2645833v.2645834h-.2645833z"/></g></g></svg>
