<svg height="16" viewBox="0 0 4.2333333 4.2333335" width="16" xmlns="http://www.w3.org/2000/svg"><g stroke="#36acd4" stroke-linejoin="round"><g stroke-width=".264583" transform="matrix(.11853772 0 0 .11327115 -.113129 -29.402827)"><circle cx="14.695166" cy="14.989442" fill="#303d5a" r="12.7" stroke-dasharray="1.899708 1.899708" stroke-dashoffset="5.699125" stroke-linecap="round" stroke-width="1.899708" transform="matrix(1.2230263 0 0 1.2798912 .928827 258.98627)"/><path d="m27.067216 286.66103q-1.623683.7453-3.55347 1.30427-1.916478.54566-3.713177.54566-2.315745 0-4.245532-.63882-1.929787-.63883-3.287292-1.91649-1.370815-1.29096-2.116112-3.22075-.7452973-1.94309-.7452973-4.53831 0-4.75128 2.7682463-7.4929 2.781555-2.75495 7.625987-2.75495 1.690228 0 3.446999.41258 1.770081.39926 3.806339 1.37082v3.12759h-.23956q-.412574-.31942-1.197799-.83847-.785223-.51904-1.54383-.86507-.918312-.41258-2.089493-.67875-1.157872-.27949-2.635157-.27949-3.32722 0-5.270317 2.14272-1.929786 2.12943-1.929786 5.77606 0 3.84626 2.022949 5.989 2.022949 2.12941 5.509875 2.12941 1.277652 0 2.541996-.25286 1.277652-.25288 2.235891-.65214v-4.85774h-5.310242v-2.31574h7.918782z" fill="#fdfdfd" stroke-width="1.632263"/><g fill="#fff" stroke-linecap="round"><ellipse cx="15.748543" cy="274.45538" rx="2.312619" ry="2.42011" stroke-width="1.182877" transform="matrix(.99991254 -.01322524 .01207634 .99992708 0 0)"/><ellipse cx="25.400501" cy="275.30551" rx="1.455426" ry="1.523096" stroke-width=".744438"/></g></g><g fill="#fff" stroke-linecap="round" stroke-width=".529167"><circle cx="11.399553" cy="-19.237146" r="0"/><circle cx="21.16079" cy="-19.199336" r="0"/></g></g></svg>