<svg height="16" viewBox="0 0 16 16" width="16" xmlns="http://www.w3.org/2000/svg"><path d="m2 2v12h5.875v-3.5625c.0000311-.310647.2518527-.5624689.5625-.5625h1.4375v-1.4375c.0000311-.3106473.251853-.5624689.5625-.5625h3.5625v-5.875z" fill="#a5b7f3"/><path d="m11.000001 9v2.000001h2.499999v2.499999h2.000001v-1.124999-2.249998-1.125003zm2.499999 4.5h-2.499999v-2.499999h-2.0000005v4.5h4.4999995z" fill="#a5b7f3"/><path d="m20.25-6.625a.56255625.56255625 0 0 0 -.5625.5625v1.4375h-1.4375a.56255625.56255625 0 0 0 -.5625.5625v4.5a.56255625.56255625 0 0 0 .5625.5625h4.5a.56255625.56255625 0 0 0 .5625-.5625v-1.4375h1.4375a.56255625.56255625 0 0 0 .5625-.5625v-1.125-2.25-1.125a.56255625.56255625 0 0 0 -.5625-.5625z"/><path d="m22.000001 3.499999v2.000001h2.499999v2.499999h2.000001v-1.124999-2.249998-1.125003zm2.499999 4.5h-2.499999v-2.499999h-2v4.5h4.499999z" fill="#a5b7f3"/></svg>