<?xml version="1.0" encoding="UTF-8" standalone="no"?>
<!-- Created with Inkscape (http://www.inkscape.org/) -->

<svg
   xmlns:osb="http://www.openswatchbook.org/uri/2009/osb"
   xmlns:dc="http://purl.org/dc/elements/1.1/"
   xmlns:cc="http://creativecommons.org/ns#"
   xmlns:rdf="http://www.w3.org/1999/02/22-rdf-syntax-ns#"
   xmlns:svg="http://www.w3.org/2000/svg"
   xmlns="http://www.w3.org/2000/svg"
   xmlns:xlink="http://www.w3.org/1999/xlink"
   xmlns:sodipodi="http://sodipodi.sourceforge.net/DTD/sodipodi-0.dtd"
   xmlns:inkscape="http://www.inkscape.org/namespaces/inkscape"
   width="329.41898"
   height="91.751427"
   viewBox="0 0 87.158765 24.275899"
   version="1.1"
   id="svg8"
   inkscape:version="0.92.4 (5da689c313, 2019-01-14)"
   sodipodi:docname="logo.svg">
  <defs
     id="defs2">
    <linearGradient
       id="linearGradient2382"
       inkscape:collect="always">
      <stop
         id="stop2378"
         offset="0"
         style="stop-color:#36acd4;stop-opacity:1;" />
      <stop
         id="stop2380"
         offset="1"
         style="stop-color:#303d5a;stop-opacity:1" />
    </linearGradient>
    <linearGradient
       inkscape:collect="always"
       id="linearGradient2335">
      <stop
         style="stop-color:#36acd4;stop-opacity:1;"
         offset="0"
         id="stop2331" />
      <stop
         style="stop-color:#36acd4;stop-opacity:0;"
         offset="1"
         id="stop2333" />
    </linearGradient>
    <marker
       inkscape:stockid="Arrow1Send"
       orient="auto"
       refY="0"
       refX="0"
       id="Arrow1Send"
       style="overflow:visible"
       inkscape:isstock="true">
      <path
         id="path846"
         d="M 0,0 5,-5 -12.5,0 5,5 Z"
         style="fill-rule:evenodd;stroke:#000000;stroke-width:1.00000003pt"
         transform="matrix(-0.2,0,0,-0.2,-1.2,0)"
         inkscape:connector-curvature="0" />
    </marker>
    <marker
       inkscape:stockid="Arrow1Lstart"
       orient="auto"
       refY="0"
       refX="0"
       id="Arrow1Lstart"
       style="overflow:visible"
       inkscape:isstock="true">
      <path
         id="path831"
         d="M 0,0 5,-5 -12.5,0 5,5 Z"
         style="fill-rule:evenodd;stroke:#000000;stroke-width:1.00000003pt"
         transform="matrix(0.8,0,0,0.8,10,0)"
         inkscape:connector-curvature="0" />
    </marker>
    <linearGradient
       id="linearGradient2869"
       osb:paint="solid">
      <stop
         style="stop-color:#000000;stop-opacity:1;"
         offset="0"
         id="stop2867" />
    </linearGradient>
    <linearGradient
       inkscape:collect="always"
       xlink:href="#linearGradient2335"
       id="linearGradient2339"
       x1="114.94463"
       y1="40.72253"
       x2="236.56006"
       y2="40.72253"
       gradientUnits="userSpaceOnUse" />
    <linearGradient
       inkscape:collect="always"
       xlink:href="#linearGradient2382"
       id="linearGradient2371"
       x1="117.44284"
       y1="40.72253"
       x2="234.06184"
       y2="40.72253"
       gradientUnits="userSpaceOnUse"
       spreadMethod="pad" />
    <linearGradient
       inkscape:collect="always"
       xlink:href="#linearGradient2382"
       id="linearGradient2388"
       gradientUnits="userSpaceOnUse"
       x1="117.44284"
       y1="40.72253"
       x2="234.06184"
       y2="40.72253"
       spreadMethod="pad" />
    <linearGradient
       inkscape:collect="always"
       xlink:href="#linearGradient2382"
       id="linearGradient920"
       gradientUnits="userSpaceOnUse"
       x1="117.44284"
       y1="40.72253"
       x2="234.06184"
       y2="40.72253"
       spreadMethod="pad" />
    <linearGradient
       inkscape:collect="always"
       xlink:href="#linearGradient2382"
       id="linearGradient922"
       gradientUnits="userSpaceOnUse"
       x1="117.44284"
       y1="40.72253"
       x2="234.06184"
       y2="40.72253"
       spreadMethod="pad" />
    <linearGradient
       inkscape:collect="always"
       xlink:href="#linearGradient2382"
       id="linearGradient924"
       gradientUnits="userSpaceOnUse"
       x1="117.44284"
       y1="40.72253"
       x2="234.06184"
       y2="40.72253"
       spreadMethod="pad" />
    <linearGradient
       inkscape:collect="always"
       xlink:href="#linearGradient2382"
       id="linearGradient926"
       gradientUnits="userSpaceOnUse"
       x1="117.44284"
       y1="40.72253"
       x2="234.06184"
       y2="40.72253"
       spreadMethod="pad" />
  </defs>
  <sodipodi:namedview
     id="base"
     pagecolor="#ffffff"
     bordercolor="#666666"
     borderopacity="1.0"
     inkscape:pageopacity="0.0"
     inkscape:pageshadow="2"
     inkscape:zoom="1.979899"
     inkscape:cx="105.92985"
     inkscape:cy="35.605569"
     inkscape:document-units="mm"
     inkscape:current-layer="text1404"
     showgrid="true"
     units="px"
     inkscape:window-width="1920"
     inkscape:window-height="1017"
     inkscape:window-x="-8"
     inkscape:window-y="-8"
     inkscape:window-maximized="1"
     inkscape:snap-global="false"
     fit-margin-top="10"
     fit-margin-left="10"
     fit-margin-bottom="10"
     fit-margin-right="10">
    <inkscape:grid
       type="xygrid"
       id="grid815"
       empspacing="8"
       originx="-2.5572159"
       originy="-6.7392764" />
  </sodipodi:namedview>
  <metadata
     id="metadata5">
    <rdf:RDF>
      <cc:Work
         rdf:about="">
        <dc:format>image/svg+xml</dc:format>
        <dc:type
           rdf:resource="http://purl.org/dc/dcmitype/StillImage" />
        <dc:title></dc:title>
      </cc:Work>
    </rdf:RDF>
  </metadata>
  <g
     inkscape:groupmode="layer"
     id="layer3"
     inkscape:label="Layer 2"
     style="display:inline"
     transform="translate(-2.5572164,-2.8514926)">
    <circle
       style="opacity:1;fill:#303d5a;fill-opacity:1;stroke:#36acd4;stroke-width:1.32105815;stroke-linecap:round;stroke-linejoin:round;stroke-miterlimit:4;stroke-dasharray:1.32105818, 1.32105818;stroke-dashoffset:5.69912481;stroke-opacity:1;paint-order:normal"
       id="path3693"
       cx="14.695166"
       cy="14.989442"
       r="8.8315868" />
  </g>
  <g
     inkscape:label="Layer 1"
     inkscape:groupmode="layer"
     id="layer1"
     transform="translate(-2.5572164,-265.98482)"
     style="display:inline">
    <flowRoot
       xml:space="preserve"
       id="flowRoot1394"
       style="font-style:normal;font-weight:normal;font-size:64px;line-height:1.25;letter-spacing:0px;word-spacing:0px;fill:#000000;fill-opacity:1;stroke:none"
       transform="matrix(0.26458333,0,0,0.26458333,0,263.13332)"><flowRegion
         id="flowRegion1396"
         style="font-size:64px"><rect
           id="rect1398"
           width="96"
           height="48"
           x="56"
           y="40"
           style="font-size:64px" /></flowRegion><flowPara
         id="flowPara1400" /></flowRoot>    <g
       aria-label="G"
       style="font-style:normal;font-weight:normal;font-size:25.39999962px;line-height:1.25;letter-spacing:0px;word-spacing:0px;fill:#000000;fill-opacity:1;stroke:none;stroke-width:0.26458332"
       id="text1404"
       transform="matrix(0.81764389,0,0,0.7813164,-0.75944944,60.783101)">
      <path
         d="m 24.579913,284.07501 q -1.12911,0.51828 -2.471085,0.90699 -1.33272,0.37945 -2.582145,0.37945 -1.61037,0 -2.952345,-0.44423 -1.341975,-0.44425 -2.285985,-1.33273 -0.953265,-0.89774 -1.471545,-2.23971 -0.518281,-1.35123 -0.518281,-3.15595 0,-3.30404 1.92504,-5.21056 1.934295,-1.9158 5.303116,-1.9158 1.175385,0 2.397045,0.28691 1.230915,0.27765 2.64693,0.95327 v 2.17493 h -0.16659 q -0.286904,-0.22213 -0.83295,-0.58307 -0.546045,-0.36094 -1.07358,-0.60157 -0.638595,-0.28691 -1.453035,-0.47201 -0.805185,-0.19435 -1.83249,-0.19435 -2.31375,0 -3.664981,1.49004 -1.341974,1.48081 -1.341974,4.01668 0,2.67469 1.40676,4.16475 1.40676,1.4808 3.83157,1.4808 0.88848,0 1.767705,-0.17584 0.88848,-0.17586 1.55484,-0.4535 v -3.37808 h -3.692745 v -1.61036 h 5.506725 z"
         style="font-size:25.39999962px;opacity:1;fill:#fdfdfd;fill-opacity:1;stroke:#36acd4;stroke-width:1.13507652;stroke-linecap:butt;stroke-linejoin:round;stroke-miterlimit:4;stroke-dasharray:none;stroke-dashoffset:0;stroke-opacity:1;paint-order:fill markers stroke"
         id="path1406"
         inkscape:connector-curvature="0" />
      <ellipse
         style="opacity:1;fill:#ffffff;fill-opacity:1;stroke:#36acd4;stroke-width:0.82257301;stroke-linecap:round;stroke-linejoin:round;stroke-miterlimit:4;stroke-dasharray:none;stroke-dashoffset:0;stroke-opacity:1;paint-order:normal"
         id="path1197"
         cx="15.685247"
         cy="275.65598"
         rx="1.6081969"
         ry="1.6829456"
         transform="matrix(0.99991254,-0.01322524,0.01207634,0.99992708,0,0)" />
      <ellipse
         style="font-style:normal;font-weight:normal;font-size:25.39999962px;line-height:1.25;letter-spacing:0px;word-spacing:0px;display:inline;opacity:1;fill:#ffffff;fill-opacity:1;stroke:#36acd4;stroke-width:0.51768261;stroke-linecap:round;stroke-linejoin:round;stroke-miterlimit:4;stroke-dasharray:none;stroke-dashoffset:0;stroke-opacity:1;paint-order:normal"
         id="path1197-0"
         cx="23.420879"
         cy="276.17838"
         rx="1.0121037"
         ry="1.0591615" />
      <g
         aria-label="Goost"
         transform="matrix(0.64764735,0,0,0.67775988,-44.171614,250.45545)"
         style="font-style:normal;font-variant:normal;font-weight:normal;font-stretch:normal;font-size:48px;line-height:1.25;letter-spacing:0px;word-spacing:0px;fill:url(#linearGradient2371);fill-opacity:1;stroke:#303d5a;stroke-width:0;stroke-miterlimit:4;stroke-dasharray:none;stroke-opacity:1"
         id="flowRoot865">
        <path
           d="m 136.69084,44.034531 h -6.528 v -4.8 h 11.904 v 15.168 q -1.344,0.624 -4.8,1.248 -3.456,0.576 -6.288,0.576 -7.632,0 -10.608,-3.552 -2.928,-3.552 -2.928,-11.952 0,-8.016 3.456,-11.76 3.504,-3.744 11.04,-3.744 2.832,0 5.04,0.144 2.256,0.096 3.456,0.336 v 5.04 q -1.728,-0.144 -3.984,-0.24 -2.256,-0.096 -4.512,-0.096 -4.944,0 -6.768,2.256 -1.776,2.256 -1.776,8.064 0,2.784 0.288,4.608 0.336,1.824 0.96,2.976 0.816,1.44 2.304,2.064 1.536,0.624 4.512,0.624 1.008,0 2.352,-0.144 1.344,-0.144 2.88,-0.384 z"
           style="fill:url(#linearGradient920);fill-opacity:1;stroke:#303d5a;stroke-width:0;stroke-miterlimit:4;stroke-dasharray:none;stroke-opacity:1"
           id="path895"
           inkscape:connector-curvature="0" />
        <path
           d="m 168.26959,43.890531 q 0,6.72 -2.592,9.552 -2.544,2.784 -8.736,2.784 -6.288,0 -8.832,-2.736 -2.544,-2.784 -2.544,-9.6 0,-6.672 2.592,-9.456 2.592,-2.832 8.784,-2.832 6.24,0 8.784,2.784 2.544,2.736 2.544,9.504 z m -17.136,-0.048 q 0,4.416 1.104,5.808 1.104,1.392 4.704,1.392 3.504,0 4.608,-1.392 1.152,-1.44 1.152,-5.808 0,-4.464 -1.104,-5.856 -1.056,-1.392 -4.656,-1.392 -3.552,0 -4.704,1.44 -1.104,1.44 -1.104,5.808 z"
           style="fill:url(#linearGradient922);fill-opacity:1;stroke:#303d5a;stroke-width:0;stroke-miterlimit:4;stroke-dasharray:none;stroke-opacity:1"
           id="path897"
           inkscape:connector-curvature="0" />
        <path
           d="m 194.23834,43.890531 q 0,6.72 -2.592,9.552 -2.544,2.784 -8.736,2.784 -6.288,0 -8.832,-2.736 -2.544,-2.784 -2.544,-9.6 0,-6.672 2.592,-9.456 2.592,-2.832 8.784,-2.832 6.24,0 8.784,2.784 2.544,2.736 2.544,9.504 z m -17.136,-0.048 q 0,4.416 1.104,5.808 1.104,1.392 4.704,1.392 3.504,0 4.608,-1.392 1.152,-1.44 1.152,-5.808 0,-4.464 -1.104,-5.856 -1.056,-1.392 -4.656,-1.392 -3.552,0 -4.704,1.44 -1.104,1.44 -1.104,5.808 z"
           style="fill:url(#linearGradient924);fill-opacity:1;stroke:#303d5a;stroke-width:0;stroke-miterlimit:4;stroke-dasharray:none;stroke-opacity:1"
           id="path899"
           inkscape:connector-curvature="0" />
        <path
           d="m 207.39109,36.402531 q -2.544,0 -3.504,0.528 -0.912,0.48 -0.912,2.16 0,0.816 0.384,1.248 0.384,0.384 1.296,0.528 l 5.904,0.864 q 2.832,0.384 3.936,1.776 1.152,1.392 1.152,4.416 0,4.368 -2.016,6.336 -2.016,1.968 -6.864,1.968 -2.784,0 -5.088,-0.24 -2.304,-0.24 -3.888,-0.72 v -4.944 q 1.488,0.384 3.648,0.672 2.16,0.24 4.368,0.24 2.496,0 3.36,-0.624 0.912,-0.624 0.912,-2.352 0,-0.864 -0.432,-1.296 -0.432,-0.48 -1.44,-0.624 l -6,-0.864 q -2.448,-0.336 -3.6,-1.824 -1.152,-1.536 -1.152,-4.416 0,-3.888 2.352,-5.76 2.4,-1.872 7.248,-1.872 1.968,0 3.6,0.096 1.632,0.096 3.36,0.384 v 4.752 q -1.248,-0.192 -3.024,-0.288 -1.728,-0.144 -3.6,-0.144 z"
           style="fill:url(#linearGradient926);fill-opacity:1;stroke:#303d5a;stroke-width:0;stroke-miterlimit:4;stroke-dasharray:none;stroke-opacity:1"
           id="path901"
           inkscape:connector-curvature="0" />
        <path
           d="m 234.06184,50.610531 v 4.752 q -0.816,0.336 -2.304,0.576 -1.44,0.288 -2.64,0.288 -4.56,0 -6.528,-1.968 -1.968,-2.016 -1.968,-6.672 v -10.848 h -3.168 v -4.656 h 3.312 l 0.768,-5.664 h 4.656 v 5.664 h 7.584 v 4.656 h -7.584 v 10.656 q 0,2.112 0.912,2.88 0.912,0.768 3.264,0.768 0.816,0 1.92,-0.096 1.104,-0.144 1.776,-0.336 z"
           style="fill:url(#linearGradient2388);fill-opacity:1;stroke:#303d5a;stroke-width:0;stroke-miterlimit:4;stroke-dasharray:none;stroke-opacity:1"
           id="path903"
           inkscape:connector-curvature="0" />
      </g>
    </g>
  </g>
  <g
     inkscape:groupmode="layer"
     id="layer2"
     inkscape:label="Layer 3"
     style="display:inline"
     transform="translate(-2.5572164,-2.8514926)">
    <circle
       transform="translate(0,-263.13332)"
       style="display:inline;opacity:1;fill:#ffffff;fill-opacity:1;stroke:#36acd4;stroke-width:0.5291667;stroke-linecap:round;stroke-linejoin:round;stroke-miterlimit:4;stroke-dasharray:none;stroke-dashoffset:0;stroke-opacity:1;paint-order:normal"
       id="path1099"
       cx="9.7990313"
       cy="270.94797"
       r="0" />
    <circle
       transform="translate(0,-263.13332)"
       style="display:inline;opacity:1;fill:#ffffff;fill-opacity:1;stroke:#36acd4;stroke-width:0.5291667;stroke-linecap:round;stroke-linejoin:round;stroke-miterlimit:4;stroke-dasharray:none;stroke-dashoffset:0;stroke-opacity:1;paint-order:normal"
       id="path1099-6"
       cx="19.560268"
       cy="270.98578"
       r="0" />
  </g>
</svg>
